<?xml version="1.0" standalone="no"?>
<!DOCTYPE svg PUBLIC "-//W3C//DTD SVG 20010904//EN"
 "http://www.w3.org/TR/2001/REC-SVG-20010904/DTD/svg10.dtd">
<svg version="1.0" xmlns="http://www.w3.org/2000/svg"
 width="715.000000pt" height="715.000000pt" viewBox="0 0 715.000000 715.000000"
 preserveAspectRatio="xMidYMid meet">
<metadata>
Created by potrace 1.14, written by Peter Selinger 2001-2017
</metadata>
<g transform="translate(0.000000,715.000000) scale(0.100000,-0.100000)"
fill="#000000" stroke="none">
<path d="M465 5328 c-3 -7 -6 -191 -7 -408 l-3 -395 -223 -3 -222 -2 0 -320 0
-320 159 0 c150 0 159 -1 164 -20 4 -17 14 -20 66 -20 l61 0 0 -650 c0 -685 5
-786 45 -947 83 -327 281 -491 670 -554 42 -7 264 -13 558 -16 l487 -5 0 70
c0 66 -1 70 -25 76 -13 3 -186 6 -382 6 -284 -1 -377 2 -448 15 -187 33 -304
85 -406 183 -56 53 -79 85 -115 157 -91 185 -104 294 -104 870 0 380 2 435 15
435 8 0 15 4 15 10 0 5 -7 7 -15 4 -13 -5 -15 17 -15 165 l0 171 -25 0 c-21 0
-25 5 -25 28 0 15 -9 61 -20 102 -22 86 -19 126 16 178 13 19 29 53 35 76 14
50 27 183 19 194 -3 4 -4 60 -2 126 l3 119 152 -6 c174 -6 161 0 -23 11 l-125
7 -3 258 -2 257 68 0 67 0 59 -55 c32 -30 64 -55 71 -55 7 0 26 -6 42 -14 47
-24 77 -36 108 -45 17 -5 38 -12 48 -16 12 -5 17 -2 17 10 0 11 -5 15 -15 11
-10 -3 -15 1 -16 12 0 10 -3 12 -6 5 -3 -9 -10 -10 -24 -3 -10 6 -19 8 -19 4
0 -4 -8 0 -17 8 -10 9 -34 19 -53 23 -52 11 -101 39 -139 79 l-35 36 232 0
233 0 -3 78 -3 77 -443 3 c-349 2 -444 0 -447 -10z m75 -1229 c-41 -10 -200
-7 -200 4 0 4 53 7 118 6 88 -1 108 -3 82 -10z"/>
<path d="M3617 5302 c-21 -2 -35 -7 -31 -13 3 -5 2 -38 -1 -73 l-7 -64 -34 5
c-27 4 -34 2 -34 -10 0 -13 16 -15 112 -14 l112 2 23 -35 c33 -47 52 -52 25
-6 -27 45 -27 46 -4 46 18 0 112 88 112 106 0 5 -11 16 -26 25 l-25 15 43 0
c24 -1 44 3 46 7 2 8 -239 15 -311 9z"/>
<path d="M3206 5290 c20 -39 97 -150 101 -146 3 2 -11 29 -31 58 -39 57 -82
112 -70 88z"/>
<path d="M3235 5290 c3 -5 8 -10 11 -10 2 0 4 5 4 10 0 6 -5 10 -11 10 -5 0
-7 -4 -4 -10z"/>
<path d="M5690 5203 c-23 -54 -44 -104 -47 -110 -4 -10 19 -13 96 -13 l101 0
0 110 0 110 -54 0 -54 0 -42 -97z"/>
<path d="M4151 5175 c-2 -22 -5 -60 -7 -84 -3 -31 -1 -42 6 -35 7 7 9 42 7 85
-2 43 -4 57 -6 34z"/>
<path d="M3925 5110 c-3 -5 -2 -10 4 -10 5 0 13 5 16 10 3 6 2 10 -4 10 -5 0
-13 -4 -16 -10z"/>
<path d="M3333 5093 c8 -10 41 -56 71 -103 31 -47 72 -107 91 -134 19 -27 35
-56 35 -64 0 -12 3 -13 11 -5 9 9 4 23 -20 54 -17 24 -31 49 -31 56 0 7 -4 13
-9 13 -6 0 -40 45 -76 100 -37 55 -72 100 -78 100 -5 0 -3 -8 6 -17z"/>
<path d="M3517 5094 c-15 -15 -6 -33 16 -31 26 2 58 27 34 27 -9 0 -22 2 -29
5 -8 3 -17 2 -21 -1z"/>
<path d="M3880 5059 c-22 -6 -20 -7 13 -8 38 -1 47 3 25 11 -7 3 -24 1 -38 -3z"/>
<path d="M5468 4683 l-166 -388 65 -3 65 -3 90 88 c90 88 198 237 198 273 0
22 -31 45 -117 89 -44 22 -63 37 -63 50 0 29 20 30 75 2 39 -19 64 -25 117
-24 102 2 108 5 109 66 0 29 2 86 4 127 5 115 10 110 -109 110 l-102 0 -166
-387z"/>
<path d="M3800 5035 c0 -3 7 -21 14 -40 10 -24 20 -33 30 -29 12 4 10 11 -7
39 -20 30 -37 44 -37 30z"/>
<path d="M3891 5024 c0 -11 3 -14 6 -6 3 7 2 16 -1 19 -3 4 -6 -2 -5 -13z"/>
<path d="M3960 4990 c0 -14 15 -19 29 -11 9 6 7 10 -8 14 -12 3 -21 1 -21 -3z"/>
<path d="M3585 4961 c-3 -5 -1 -12 5 -16 5 -3 10 1 10 9 0 18 -6 21 -15 7z"/>
<path d="M3635 4960 c-8 -13 9 -20 24 -11 10 6 9 10 -3 14 -8 3 -18 2 -21 -3z"/>
<path d="M3827 4943 c-4 -3 -7 -11 -7 -17 0 -6 5 -5 12 2 6 6 9 14 7 17 -3 3
-9 2 -12 -2z"/>
<path d="M3660 4930 c0 -5 5 -10 11 -10 5 0 7 5 4 10 -3 6 -8 10 -11 10 -2 0
-4 -4 -4 -10z"/>
<path d="M4143 4866 c24 -18 21 -34 -5 -38 -13 -2 -23 -10 -23 -18 0 -8 -13
-19 -30 -25 -30 -10 -45 -22 -45 -39 0 -5 8 -2 18 6 22 18 92 39 92 27 0 -5 5
-9 10 -9 6 0 10 11 10 25 0 21 5 25 31 25 51 0 33 31 -26 46 -41 11 -47 11
-32 0z"/>
<path d="M3820 4849 c0 -5 9 -9 20 -9 11 0 20 2 20 4 0 2 -9 6 -20 9 -11 3
-20 1 -20 -4z"/>
<path d="M3410 4810 c0 -19 5 -30 14 -30 20 0 29 16 21 40 -10 32 -35 25 -35
-10z"/>
<path d="M4282 4813 c4 -19 53 -41 65 -29 10 9 -33 46 -54 46 -8 0 -13 -7 -11
-17z"/>
<path d="M3162 4798 c-14 -14 -16 -38 -3 -38 5 0 12 6 14 13 4 9 8 8 16 -3 14
-20 28 -3 15 17 -14 22 -27 26 -42 11z"/>
<path d="M3505 4752 c-17 -14 -90 -32 -134 -32 -24 0 -41 -5 -41 -11 0 -7 11
-9 30 -6 21 5 32 2 39 -11 7 -12 21 -16 57 -14 69 3 82 22 14 22 -65 0 -62 10
3 12 26 0 44 4 41 9 -3 5 0 9 5 9 6 0 11 7 11 15 0 17 -11 19 -25 7z"/>
<path d="M3116 4699 c-54 -4 -103 -11 -110 -14 -17 -8 214 5 254 14 l35 9 -40
0 c-22 -1 -84 -4 -139 -9z"/>
<path d="M1390 4673 c8 -3 20 -9 26 -14 5 -4 23 -4 40 0 29 9 29 9 3 10 -15 1
-39 3 -55 5 -16 2 -22 1 -14 -1z"/>
<path d="M3590 4635 c0 -8 4 -15 9 -15 5 0 16 -3 25 -6 26 -10 18 12 -9 24
-21 10 -25 9 -25 -3z"/>
<path d="M1230 4630 c51 -13 133 -22 98 -11 -15 5 -51 12 -80 15 -43 4 -46 4
-18 -4z"/>
<path d="M1200 4575 c0 -12 3 -16 8 -8 4 6 21 13 37 15 29 3 29 4 -7 9 -33 4
-38 2 -38 -16z"/>
<path d="M1293 4573 c9 -2 23 -2 30 0 6 3 -1 5 -18 5 -16 0 -22 -2 -12 -5z"/>
<path d="M1355 4560 c27 -12 43 -12 25 0 -8 5 -22 9 -30 9 -10 0 -8 -3 5 -9z"/>
<path d="M4161 4552 c-8 -3 -26 -19 -40 -36 -74 -89 -132 -121 -213 -117 -52
2 -58 0 -58 -18 0 -11 7 -36 16 -54 l17 -35 181 -2 c394 -5 496 -5 496 2 0 7
-90 210 -96 217 -3 3 -17 -8 -32 -22 -16 -15 -37 -27 -49 -27 -25 0 -49 25
-33 35 5 3 10 11 10 18 0 7 -7 5 -16 -5 -16 -15 -20 -14 -66 17 -45 31 -81 40
-117 27z"/>
<path d="M4330 4550 c0 -5 5 -10 10 -10 6 0 10 5 10 10 0 6 -4 10 -10 10 -5 0
-10 -4 -10 -10z"/>
<path d="M3410 4526 c0 -7 15 -21 34 -30 45 -21 53 -20 31 4 -10 11 -27 20
-37 20 -11 0 -16 5 -13 10 3 6 1 10 -4 10 -6 0 -11 -6 -11 -14z"/>
<path d="M3528 4523 c-23 -6 -28 -78 -7 -113 6 -10 8 1 9 33 0 30 4 46 10 42
13 -8 26 24 14 34 -5 4 -17 6 -26 4z"/>
<path d="M1580 4478 l0 -43 360 -2 360 -2 0 44 0 45 -360 0 -360 0 0 -42z"/>
<path d="M3670 4506 c0 -2 7 -6 15 -10 8 -3 15 -1 15 4 0 6 -7 10 -15 10 -8 0
-15 -2 -15 -4z"/>
<path d="M985 4319 c-18 -11 -24 -19 -14 -19 9 0 24 9 34 20 22 24 19 24 -20
-1z"/>
<path d="M3817 4246 c-6 -15 1 -26 15 -26 11 0 10 27 -1 34 -5 3 -11 0 -14 -8z"/>
<path d="M2325 4240 c-3 -5 -1 -10 4 -10 6 0 11 5 11 10 0 6 -2 10 -4 10 -3 0
-8 -4 -11 -10z"/>
<path d="M3777 4243 c-4 -3 -7 -11 -7 -17 0 -6 5 -5 12 2 6 6 9 14 7 17 -3 3
-9 2 -12 -2z"/>
<path d="M3700 4230 c-12 -8 -11 -10 8 -10 12 0 22 5 22 10 0 13 -11 13 -30 0z"/>
<path d="M2258 4137 c-37 -10 -45 -22 -30 -42 4 -6 21 2 42 22 19 18 33 32 30
32 -3 -1 -22 -6 -42 -12z"/>
<path d="M2176 4117 c3 -10 9 -15 12 -12 3 3 0 11 -7 18 -10 9 -11 8 -5 -6z"/>
<path d="M2327 4106 c-6 -15 1 -26 15 -26 4 0 8 9 8 20 0 23 -15 27 -23 6z"/>
<path d="M736 4095 c-3 -9 0 -15 9 -15 9 0 12 6 9 15 -4 8 -7 15 -9 15 -2 0
-5 -7 -9 -15z"/>
<path d="M3185 4090 l-40 -7 40 -2 c127 -6 222 -23 242 -44 14 -14 13 -16 -6
-26 -11 -7 -21 -21 -21 -31 0 -11 -5 -20 -11 -20 -10 0 -8 -105 3 -115 2 -3
11 18 18 45 8 28 20 56 27 62 7 6 13 15 13 20 0 6 -7 5 -15 -2 -8 -7 -15 -8
-15 -2 0 5 7 15 15 22 8 7 15 9 15 6 0 -4 13 2 29 13 16 12 37 21 48 21 15 1
15 2 3 9 -14 9 -287 63 -299 60 -3 -1 -24 -5 -46 -9z"/>
<path d="M2170 4075 c-14 -17 -5 -36 15 -28 16 6 21 43 6 43 -5 0 -14 -7 -21
-15z"/>
<path d="M3053 4068 c-39 -12 -63 -25 -63 -34 0 -13 4 -13 28 0 16 8 50 20 75
27 26 6 44 15 41 20 -6 11 -5 11 -81 -13z"/>
<path d="M3570 4029 c0 -21 25 -28 175 -48 33 -4 68 -11 78 -16 13 -5 17 -2
17 11 0 13 -8 19 -22 20 -13 0 -52 7 -88 13 -108 21 -160 28 -160 20z"/>
<path d="M2070 3979 c-25 -22 -64 -57 -87 -77 -24 -20 -43 -41 -43 -45 0 -5
33 20 73 56 39 35 82 69 95 76 21 11 31 31 15 31 -5 0 -28 -19 -53 -41z"/>
<path d="M6673 3893 c9 -2 23 -2 30 0 6 3 -1 5 -18 5 -16 0 -22 -2 -12 -5z"/>
<path d="M6453 3883 c15 -2 39 -2 55 0 15 2 2 4 -28 4 -30 0 -43 -2 -27 -4z"/>
<path d="M6253 3873 c15 -2 39 -2 55 0 15 2 2 4 -28 4 -30 0 -43 -2 -27 -4z"/>
<path d="M6058 3863 c17 -2 47 -2 65 0 17 2 3 4 -33 4 -36 0 -50 -2 -32 -4z"/>
<path d="M3386 3821 c-4 -7 -5 -15 -2 -18 9 -9 19 4 14 18 -4 11 -6 11 -12 0z"/>
<path d="M6497 3798 c-7 -25 -1 -38 18 -38 8 0 16 4 19 8 8 14 -5 52 -19 52
-7 0 -15 -10 -18 -22z"/>
<path d="M3689 3777 c-16 -13 -49 -62 -49 -73 0 -3 7 -1 15 6 8 7 15 18 15 26
0 7 10 20 22 28 12 9 19 18 17 21 -3 2 -12 -1 -20 -8z"/>
<path d="M3380 3728 c0 -9 -19 -34 -41 -57 -44 -44 -44 -53 1 -21 28 20 58 76
46 87 -3 3 -6 -1 -6 -9z"/>
<path d="M6445 3730 c-3 -5 -2 -10 4 -10 5 0 13 5 16 10 3 6 2 10 -4 10 -5 0
-13 -4 -16 -10z"/>
<path d="M6490 3730 c0 -5 5 -10 11 -10 5 0 7 5 4 10 -3 6 -8 10 -11 10 -2 0
-4 -4 -4 -10z"/>
<path d="M6523 3727 c-4 -6 0 -8 10 -4 9 3 17 1 19 -5 2 -6 9 -4 16 5 10 12 8
15 -13 15 -14 0 -28 -5 -32 -11z"/>
<path d="M6595 3730 c4 -6 11 -8 16 -5 14 9 11 15 -7 15 -8 0 -12 -5 -9 -10z"/>
<path d="M6740 3723 c-1 -5 0 -277 0 -605 l1 -598 -23 -1 -23 0 23 -9 c26 -11
29 -37 5 -43 -17 -4 -17 -5 0 -6 16 -1 17 -23 17 -321 l0 -320 59 0 59 0 4 48
c2 26 3 388 2 805 l-2 757 -31 35 c-17 20 -31 40 -31 44 0 5 15 12 33 15 l32
6 -1 88 c-1 48 -2 93 -3 100 -1 13 -121 18 -121 5z"/>
<path d="M6406 3692 c-7 -12 49 -21 66 -10 10 6 9 8 -2 8 -8 0 -25 3 -36 6
-12 3 -24 1 -28 -4z"/>
<path d="M6495 3690 c-3 -5 1 -10 10 -10 9 0 13 5 10 10 -3 6 -8 10 -10 10 -2
0 -7 -4 -10 -10z"/>
<path d="M6568 3683 c7 -3 16 -2 19 1 4 3 -2 6 -13 5 -11 0 -14 -3 -6 -6z"/>
<path d="M6415 3640 c-3 -5 3 -10 14 -10 11 0 23 5 26 10 3 6 -3 10 -14 10
-11 0 -23 -4 -26 -10z"/>
<path d="M6480 3636 c7 -7 13 -7 20 0 6 6 3 10 -10 10 -13 0 -16 -4 -10 -10z"/>
<path d="M6590 3640 c0 -5 5 -10 10 -10 6 0 10 5 10 10 0 6 -4 10 -10 10 -5 0
-10 -4 -10 -10z"/>
<path d="M3065 3620 c-3 -5 -1 -10 4 -10 6 0 11 5 11 10 0 6 -2 10 -4 10 -3 0
-8 -4 -11 -10z"/>
<path d="M3253 3623 c-14 -5 -18 -23 -5 -23 5 0 17 7 28 15 14 11 15 14 4 14
-8 0 -21 -3 -27 -6z"/>
<path d="M6211 3604 c0 -11 3 -14 6 -6 3 7 2 16 -1 19 -3 4 -6 -2 -5 -13z"/>
<path d="M3189 3583 c-13 -15 -12 -15 11 -3 34 17 36 20 18 20 -9 0 -22 -7
-29 -17z"/>
<path d="M3137 3533 c-29 -43 -46 -123 -27 -123 7 0 14 9 17 19 3 12 11 17 19
14 8 -3 14 0 14 6 0 6 -4 11 -10 11 -5 0 -13 11 -16 26 -5 18 0 32 16 50 13
13 21 27 17 30 -3 3 -17 -11 -30 -33z"/>
<path d="M3750 3528 c0 -30 13 -58 26 -58 9 0 14 12 14 35 0 28 -4 35 -20 35
-11 0 -20 -6 -20 -12z"/>
<path d="M1516 3434 c-27 -24 -46 -47 -44 -50 5 -5 47 33 82 74 29 34 16 26
-38 -24z"/>
<path d="M3706 3441 c-4 -5 -2 -12 3 -15 5 -4 12 -2 15 3 4 5 2 12 -3 15 -5 4
-12 2 -15 -3z"/>
<path d="M3750 3438 c0 -8 13 -15 31 -16 21 -2 30 2 27 10 -6 18 -58 23 -58 6z"/>
<path d="M3735 3388 c-4 -13 -53 -254 -61 -298 -4 -22 -2 -22 10 5 8 17 24 82
36 145 12 63 26 123 31 132 12 23 11 28 -1 28 -6 0 -12 -6 -15 -12z"/>
<path d="M3030 3374 c0 -8 5 -12 10 -9 6 3 10 10 10 16 0 5 -4 9 -10 9 -5 0
-10 -7 -10 -16z"/>
<path d="M3085 3379 c-9 -13 27 -40 40 -30 5 5 24 12 40 16 27 6 28 8 10 15
-11 4 -25 3 -32 -2 -7 -5 -14 -5 -18 2 -8 13 -32 13 -40 -1z"/>
<path d="M3000 3370 c0 -5 5 -10 10 -10 6 0 10 5 10 10 0 6 -4 10 -10 10 -5 0
-10 -4 -10 -10z"/>
<path d="M1421 3344 c-13 -13 -21 -27 -18 -31 4 -3 8 -4 10 -2 1 2 13 16 26
32 30 33 15 34 -18 1z"/>
<path d="M3086 3314 c-4 -9 -4 -19 -1 -22 2 -3 7 3 11 12 4 9 4 19 1 22 -2 3
-7 -3 -11 -12z"/>
<path d="M1351 3274 c-13 -13 -22 -26 -19 -29 2 -3 17 9 33 25 34 35 21 39
-14 4z"/>
<path d="M3026 3235 c-22 -19 -36 -38 -33 -42 4 -4 26 12 49 35 50 51 39 55
-16 7z"/>
<path d="M1065 2989 c-132 -132 -235 -239 -230 -239 8 0 399 385 484 476 2 2
0 3 -5 3 -5 -1 -117 -109 -249 -240z"/>
<path d="M3108 3099 c31 -40 193 -91 277 -88 17 1 -6 7 -50 15 -74 12 -190 52
-225 78 -13 9 -13 9 -2 -5z"/>
<path d="M6020 3090 c0 -11 4 -20 9 -20 11 0 22 26 14 34 -12 12 -23 5 -23
-14z"/>
<path d="M3025 3020 c4 -6 11 -8 16 -5 14 9 11 15 -7 15 -8 0 -12 -5 -9 -10z"/>
<path d="M3420 3010 c0 -5 21 -9 48 -9 42 1 44 2 17 9 -44 11 -65 11 -65 0z"/>
<path d="M3540 3005 c0 -8 5 -15 10 -15 6 0 10 7 10 15 0 8 -4 15 -10 15 -5 0
-10 -7 -10 -15z"/>
<path d="M3586 3003 c-4 -9 4 -13 24 -13 18 0 30 5 30 13 0 7 -11 13 -25 13
-13 0 -27 -6 -29 -13z"/>
<path d="M3670 2990 c0 -5 12 -10 28 -9 24 0 25 1 7 9 -27 12 -35 12 -35 0z"/>
<path d="M6020 2936 c0 -52 0 -53 27 -48 23 4 24 6 10 17 -21 15 -22 35 -2 35
20 0 19 6 -5 30 -11 11 -22 20 -25 20 -3 0 -5 -24 -5 -54z"/>
<path d="M3601 2922 c-13 -26 -38 -72 -57 -103 -35 -59 -39 -69 -26 -69 10 0
118 208 111 215 -3 2 -16 -17 -28 -43z"/>
<path d="M6330 2929 c0 -24 23 -21 28 4 2 10 -3 17 -12 17 -10 0 -16 -9 -16
-21z"/>
<path d="M6040 2860 c0 -5 7 -10 15 -10 8 0 15 5 15 10 0 6 -7 10 -15 10 -8 0
-15 -4 -15 -10z"/>
<path d="M6480 2780 c-12 -8 -11 -10 7 -10 12 0 25 5 28 10 8 13 -15 13 -35 0z"/>
<path d="M6560 2765 c7 -9 15 -13 17 -11 7 7 -7 26 -19 26 -6 0 -6 -6 2 -15z"/>
<path d="M3000 2721 c0 -11 3 -27 6 -35 6 -15 8 -15 20 1 20 27 17 53 -6 53
-13 0 -20 -7 -20 -19z"/>
<path d="M3331 2727 c-8 -10 -7 -21 2 -40 6 -15 14 -27 17 -27 3 0 11 12 17
27 12 26 3 53 -17 53 -4 0 -13 -6 -19 -13z"/>
<path d="M3720 2726 c0 -22 17 -28 24 -10 9 22 8 24 -9 24 -8 0 -15 -6 -15
-14z"/>
<path d="M6591 2714 c0 -11 3 -14 6 -6 3 7 2 16 -1 19 -3 4 -6 -2 -5 -13z"/>
<path d="M3124 2641 c4 -5 0 -11 -6 -14 -10 -3 -9 -8 3 -18 9 -8 19 -21 22
-29 3 -11 8 -8 17 12 16 33 7 58 -20 58 -12 0 -19 -4 -16 -9z"/>
<path d="M3484 2616 c-3 -8 1 -27 9 -43 l15 -28 12 27 c7 15 10 34 7 42 -8 20
-36 21 -43 2z"/>
<path d="M3673 2561 c-8 -12 -7 -24 2 -41 l13 -23 11 21 c6 11 11 27 11 35 0
22 -25 27 -37 8z"/>
<path d="M6658 2512 c-16 -9 -28 -20 -28 -25 0 -4 14 2 30 15 26 19 36 29 28
28 -2 0 -15 -8 -30 -18z"/>
<path d="M3105 2500 c3 -5 8 -10 11 -10 2 0 4 5 4 10 0 6 -5 10 -11 10 -5 0
-7 -4 -4 -10z"/>
<path d="M3293 2494 c-3 -8 0 -27 8 -40 l13 -25 14 26 c7 15 11 33 8 41 -7 19
-35 18 -43 -2z"/>
<path d="M961 2474 c0 -11 3 -14 6 -6 3 7 2 16 -1 19 -3 4 -6 -2 -5 -13z"/>
<path d="M3734 2428 c-75 -80 -98 -114 -142 -214 -40 -92 -93 -302 -91 -367 0
-17 14 33 30 113 25 120 39 165 83 256 39 80 64 120 90 140 20 16 36 34 36 40
0 5 14 23 30 39 17 16 30 32 30 37 0 18 -20 5 -66 -44z"/>
<path d="M6648 2459 c-19 -20 -24 -49 -9 -49 5 0 12 11 15 25 4 14 17 30 29
35 20 8 20 9 2 9 -11 -1 -28 -9 -37 -20z"/>
<path d="M3137 2445 c-4 -8 0 -26 8 -41 13 -25 13 -26 24 -6 17 33 14 62 -8
62 -10 0 -21 -7 -24 -15z"/>
<path d="M3088 2443 c7 -3 16 -2 19 1 4 3 -2 6 -13 5 -11 0 -14 -3 -6 -6z"/>
<path d="M971 2414 c0 -11 3 -14 6 -6 3 7 2 16 -1 19 -3 4 -6 -2 -5 -13z"/>
<path d="M3583 2423 c-17 -6 -16 -24 2 -59 l14 -28 11 28 c18 47 7 71 -27 59z"/>
<path d="M3070 2390 c0 -5 5 -10 11 -10 5 0 7 5 4 10 -3 6 -8 10 -11 10 -2 0
-4 -4 -4 -10z"/>
<path d="M3344 2339 c-7 -11 14 -59 26 -59 10 0 27 43 23 58 -6 15 -39 16 -49
1z"/>
<path d="M3055 2330 c-3 -5 -1 -10 4 -10 6 0 11 5 11 10 0 6 -2 10 -4 10 -3 0
-8 -4 -11 -10z"/>
<path d="M1410 2279 c0 -5 5 -7 10 -4 6 3 10 8 10 11 0 2 -4 4 -10 4 -5 0 -10
-5 -10 -11z"/>
<path d="M1448 2273 c7 -3 16 -2 19 1 4 3 -2 6 -13 5 -11 0 -14 -3 -6 -6z"/>
<path d="M1518 2258 c5 -5 16 -8 23 -6 8 3 3 7 -10 11 -17 4 -21 3 -13 -5z"/>
<path d="M3111 2256 c-8 -10 -7 -22 3 -46 13 -32 14 -32 25 -12 23 43 0 91
-28 58z"/>
<path d="M1572 2248 c5 -14 88 -30 88 -16 0 4 -12 8 -26 8 -14 0 -35 5 -46 11
-16 9 -19 8 -16 -3z"/>
<path d="M6536 2243 c-6 -14 -5 -15 5 -6 7 7 10 15 7 18 -3 3 -9 -2 -12 -12z"/>
<path d="M3474 2235 c-3 -8 0 -28 7 -44 l13 -29 14 29 c12 23 12 32 2 44 -16
19 -29 19 -36 0z"/>
<path d="M3045 2210 c3 -5 8 -10 11 -10 2 0 4 5 4 10 0 6 -5 10 -11 10 -5 0
-7 -4 -4 -10z"/>
<path d="M3035 2150 c3 -5 8 -10 11 -10 2 0 4 5 4 10 0 6 -5 10 -11 10 -5 0
-7 -4 -4 -10z"/>
<path d="M6460 2100 c-11 -21 -20 -43 -20 -47 0 -10 34 45 43 70 12 31 -2 18
-23 -23z"/>
<path d="M3328 2118 c-5 -14 13 -68 22 -68 10 0 31 60 25 70 -9 14 -42 13 -47
-2z"/>
<path d="M3035 2090 c3 -5 8 -10 11 -10 2 0 4 5 4 10 0 6 -5 10 -11 10 -5 0
-7 -4 -4 -10z"/>
<path d="M3094 2076 c-3 -8 1 -26 8 -41 l14 -26 13 25 c8 13 11 32 8 40 -8 20
-36 21 -43 2z"/>
<path d="M3035 2030 c3 -5 8 -10 11 -10 2 0 4 5 4 10 0 6 -5 10 -11 10 -5 0
-7 -4 -4 -10z"/>
<path d="M3260 1955 c-10 -12 -10 -21 3 -46 l15 -31 14 30 c23 44 -3 82 -32
47z"/>
<path d="M6386 1945 c-9 -26 -7 -32 5 -12 6 10 9 21 6 23 -2 3 -7 -2 -11 -11z"/>
<path d="M3453 1934 c-3 -8 -1 -20 6 -27 8 -8 11 -4 11 16 0 30 -7 35 -17 11z"/>
<path d="M1830 1920 c0 -5 5 -10 10 -10 6 0 10 5 10 10 0 6 -4 10 -10 10 -5 0
-10 -4 -10 -10z"/>
<path d="M3070 1920 c0 -5 5 -10 10 -10 6 0 10 5 10 10 0 6 -4 10 -10 10 -5 0
-10 -4 -10 -10z"/>
<path d="M1855 1880 c3 -5 8 -10 11 -10 2 0 4 5 4 10 0 6 -5 10 -11 10 -5 0
-7 -4 -4 -10z"/>
<path d="M3099 1874 c-6 -8 -9 -18 -5 -21 4 -4 11 -1 16 7 8 13 10 12 10 -2 0
-9 -6 -18 -12 -21 -7 -2 -10 -8 -6 -12 11 -11 38 14 38 35 0 24 -25 33 -41 14z"/>
<path d="M1880 1850 c0 -5 5 -10 10 -10 6 0 10 5 10 10 0 6 -4 10 -10 10 -5 0
-10 -4 -10 -10z"/>
</g>
</svg>
